<mxfile host="app.diagrams.net" modified="2021-07-30T01:39:15.283Z" agent="5.0 (Macintosh; Intel Mac OS X 10_15_7) AppleWebKit/537.36 (KHTML, like Gecko) Chrome/92.0.4515.107 Safari/537.36" etag="XgmdwOZk2dmb_jEh95ar" version="14.9.3" type="github">
  <diagram id="j9UKCcxIS_bgAO05k96n" name="Page-1">
    <mxGraphModel dx="1406" dy="560" grid="1" gridSize="10" guides="1" tooltips="1" connect="1" arrows="1" fold="1" page="1" pageScale="1" pageWidth="1100" pageHeight="1700" math="0" shadow="0">
      <root>
        <mxCell id="0" />
        <mxCell id="1" parent="0" />
      </root>
    </mxGraphModel>
  </diagram>
</mxfile>
